Coordinates
version=1
nRows=16
nColumns=22
inDegrees=yes

Units are S.I. units (second, meters, Newtons, ...)
If the header above contains a line with 'inDegrees', this indicates whether rotational values are in degrees (yes) or radians (no).

endheader
time	pelvis_tilt	pelvis_list	pelvis_rotation	pelvis_tx	pelvis_ty	pelvis_tz	hip_flexion_r	hip_adduction_r	hip_rotation_r	knee_angle_r	ankle_angle_r	subtalar_angle_r	hip_flexion_l	hip_adduction_l	hip_rotation_l	knee_angle_l	ankle_angle_l	subtalar_angle_l	lumbar_extension	lumbar_bending	lumbar_rotation
      0.01000000	      0.88773205	     -2.60940808	     -4.63443916	      0.05386951	      0.93304590	      1.09295384	     -5.02614942	     -1.43692464	     -1.45828839	     -6.23560294	      5.47104314	     10.08653267	     -5.77704381	     -6.44688371	    -11.78363909	     -5.49575887	      7.62686145	      6.70665559	     -3.91752455	     -0.28346369	      0.56997459
      0.02000000	      0.88226610	     -2.60933066	     -4.64075336	      0.05389679	      0.93302926	      1.09295543	     -5.02252033	     -1.43723132	     -1.46094840	     -6.23314131	      5.46925875	     10.08801194	     -5.77527131	     -6.44591217	    -11.78175705	     -5.49375367	      7.63284242	      6.70583740	     -3.92447662	     -0.28430115	      0.57010755
      0.03000000	      0.87693418	     -2.60935630	     -4.64751442	      0.05393976	      0.93301049	      1.09295466	     -5.02004353	     -1.43743559	     -1.46254005	     -6.23094100	      5.46826695	     10.08954594	     -5.77404573	     -6.44483333	    -11.78021139	     -5.49374562	      7.63965678	      6.70494077	     -3.93070218	     -0.28417659	      0.56980709
      0.04000000	      0.87242950	     -2.60997826	     -4.65910917	      0.05399241	      0.93298300	      1.09295144	     -5.01537555	     -1.43868507	     -1.45191039	     -6.23549150	      5.46565034	     10.10233473	     -5.76870727	     -6.44499235	    -11.78149462	     -5.51137906	      7.70431784	      6.69577381	     -3.93730723	     -0.28106415	      0.57754139
      0.05000000	      0.86630125	     -2.61070424	     -4.66438204	      0.05404857	      0.93296210	      1.09295751	     -5.01376340	     -1.43642256	     -1.45242692	     -6.23280912	      5.46671738	     10.10278465	     -5.76608856	     -6.44544262	    -11.78260756	     -5.51214804	      7.70495107	      6.69516440	     -3.94549371	     -0.28164266	      0.57651024
      0.06000000	      0.86063470	     -2.61131384	     -4.67395353	      0.05411480	      0.93293879	      1.09296402	     -5.01186305	     -1.43552387	     -1.45162909	     -6.23116332	      5.46839413	     10.10274277	     -5.76422871	     -6.44581612	    -11.78328990	     -5.51754427	      7.70662058	      6.69461501	     -3.95421028	     -0.27930547	      0.57549730
      0.07000000	      0.86338955	     -2.62019123	     -4.69098209	      0.05415114	      0.93292530	      1.09298684	     -5.00391418	     -1.42612438	     -1.41716241	     -6.25782553	      5.48287943	     10.09491286	     -5.75046355	     -6.45879376	    -11.80843004	     -5.56950729	      7.73291295	      6.69177562	     -3.97840410	     -0.26776218	      0.59259868
      0.08000000	      0.85607222	     -2.62006101	     -4.69954214	      0.05423027	      0.93289938	      1.09300825	     -5.00137199	     -1.42393461	     -1.41813291	     -6.25599266	      5.48396712	     10.09369898	     -5.74904620	     -6.45913990	    -11.81059366	     -5.56996485	      7.73557050	      6.69185584	     -3.98573629	     -0.26723719	      0.59241940
      0.09000000	      0.83623359	     -2.63858471	     -4.74275961	      0.05429065	      0.93284682	      1.09308752	     -4.95976791	     -1.40267482	     -1.38102986	     -6.29867598	      5.51455017	     10.04201873	     -5.72787476	     -6.48281842	    -11.88599644	     -5.60407319	      7.79648706	      6.69926066	     -3.98135683	     -0.24248183	      0.64322814
      0.10000000	      0.83044002	     -2.64036689	     -4.75435778	      0.05434645	      0.93282529	      1.09311937	     -4.94187363	     -1.39866889	     -1.36987943	     -6.32689876	      5.51371199	     10.02832638	     -5.72359049	     -6.48642091	    -11.87911823	     -5.61500120	      7.79775350	      6.70228148	     -3.99530610	     -0.23638996	      0.64962991
      0.11000000	      0.81800819	     -2.65055532	     -4.77409574	      0.05440506	      0.93279116	      1.09317402	     -4.90700453	     -1.38475414	     -1.37083107	     -6.37375865	      5.52903830	     10.00320115	     -5.72255717	     -6.49868287	    -11.88906777	     -5.61055796	      7.81144937	      6.70795174	     -4.00197272	     -0.21901528	      0.67634911
      0.12000000	      0.80958927	     -2.64878233	     -4.77727243	      0.05447826	      0.93276540	      1.09321687	     -4.89988182	     -1.38213236	     -1.37158013	     -6.37610946	      5.53170082	     10.00014334	     -5.72055876	     -6.49996300	    -11.89088784	     -5.60819505	      7.81312588	      6.70874176	     -4.01162055	     -0.21690301	      0.67907453
      0.13000000	      0.79680456	     -2.66310206	     -4.80381300	      0.05452590	      0.93273211	      1.09329431	     -4.84232506	     -1.36418829	     -1.37769124	     -6.46529064	      5.55537774	      9.97034276	     -5.72472166	     -6.51674488	    -11.89951950	     -5.59708189	      7.82925258	      6.71568146	     -4.01799764	     -0.19269153	      0.72173337
      0.14000000	      0.76494120	     -2.66889748	     -4.82847335	      0.05458879	      0.93267265	      1.09337271	     -4.77753563	     -1.35349973	     -1.39264245	     -6.52842282	      5.60074942	      9.92777599	     -5.70647304	     -6.52633951	    -11.92832818	     -5.58612435	      7.84314207	      6.72674116	     -4.00050317	     -0.17568903	      0.77012461
      0.15000000	      0.71007349	     -2.66135697	     -4.85267114	      0.05462302	      0.93258696	      1.09347514	     -4.68255322	     -1.35295728	     -1.39776882	     -6.59716623	      5.64838109	      9.85850997	     -5.64707681	     -6.52819807	    -11.95419035	     -5.60133606	      7.85316081	      6.74468065	     -3.95952360	     -0.17637904	      0.80252750
      0.16000000	      0.70133613	     -2.66158665	     -4.85900283	      0.05466357	      0.93257564	      1.09355259	     -4.65234122	     -1.34775716	     -1.40229428	     -6.64074175	      5.64483436	      9.85004847	     -5.64182898	     -6.53373373	    -11.94747966	     -5.60221596	      7.85441106	      6.74584487	     -3.97692357	     -0.16747029	      0.81290092
